<?xml version="1.0" encoding="utf-8"?>
<!-- Generator: Adobe Illustrator 26.2.1, SVG Export Plug-In . SVG Version: 6.00 Build 0)  -->
<svg version="1.1" id="icon-tickets" xmlns="http://www.w3.org/2000/svg" xmlns:xlink="http://www.w3.org/1999/xlink" x="0px"
	 y="0px" viewBox="0 0 52.7 51.8" style="enable-background:new 0 0 52.7 51.8;" xml:space="preserve">
<style type="text/css">
	.st0{fill:url(#SVGID_1_);}
	.st1{fill:url(#SVGID_00000151521953617429527330000003674893611676014217_);}
	.st2{fill:url(#SVGID_00000061443208217867127270000008159514341643059375_);}
	.st3{fill:url(#SVGID_00000137113183281518916120000004557625132639234746_);}
	.st4{fill:url(#SVGID_00000016756661529760074840000001361606154735194038_);}
</style>
<g>
	
		<linearGradient id="SVGID_1_" gradientUnits="userSpaceOnUse" x1="3.45" y1="19.3026" x2="3.45" y2="27.7546" gradientTransform="matrix(1 0 0 -1 0 54)">
		<stop  offset="0" style="stop-color:#FF5722"/>
		<stop  offset="1" style="stop-color:#5C6BC0"/>
	</linearGradient>
	<path class="st0" d="M5.7,31.3L5.7,31.3L5,28.1c-1.5,0.1-3-0.6-3.8-1.8v0.1L2.4,33c0.2,1.1,1.2,1.8,2.2,1.8
		C4.4,33.5,4.8,32.2,5.7,31.3z"/>
	
		<linearGradient id="SVGID_00000013176840877509094780000018412869537545739964_" gradientUnits="userSpaceOnUse" x1="27.6999" y1="2.088" x2="27.6999" y2="22.7316" gradientTransform="matrix(1 0 0 -1 0 54)">
		<stop  offset="0" style="stop-color:#FF5722"/>
		<stop  offset="1" style="stop-color:#5C6BC0"/>
	</linearGradient>
	<path style="fill:url(#SVGID_00000013176840877509094780000018412869537545739964_);" d="M50.3,35.4c-0.2-1.1-1.2-1.9-2.3-1.8
		c-1.6,0.2-3-0.8-3.5-2.4l-2.3,0.9c-0.3,0.1-0.6,0.2-0.9,0.3c0.9,2.6,3.1,4.4,5.8,4.6l0.8,4.2l-9.2,1.6c-0.1,0-0.3,0-0.4,0
		c-0.1,0-0.1,0-0.2-0.1l-0.3-1.4c-0.2-0.9-1-1.6-2-1.4c-0.9,0.2-1.6,1-1.4,2l0.3,1.4c-0.1,0-0.1,0.1-0.2,0.1
		c-0.1,0.1-0.2,0.1-0.3,0.2L8.6,48.3l-0.8-4.2c0.3-0.1,0.6-0.3,0.9-0.5c-0.6-0.4-1.1-1.1-1.4-1.8l-0.5-1.1c-0.3,0.2-0.7,0.4-1.1,0.5
		c-1.1,0.3-1.8,1.3-1.6,2.4l1.2,6.6c0.2,0.9,0.8,1.5,1.7,1.7c0.3,0.1,0.5,0.1,0.8,0l26.9-4.8c0.6-0.1,1.3-0.4,1.8-0.8
		c0.2-0.2,0.5-0.2,0.7-0.1c0.6,0.2,1.3,0.2,1.9,0.1l10.5-1.9c1.2-0.2,1.9-1.3,1.7-2.5L50.3,35.4z"/>
	
		<linearGradient id="SVGID_00000103222517159356334500000008185702818859461009_" gradientUnits="userSpaceOnUse" x1="26.3287" y1="11.6" x2="26.3287" y2="54.1368" gradientTransform="matrix(1 0 0 -1 0 54)">
		<stop  offset="0" style="stop-color:#FF5722"/>
		<stop  offset="1" style="stop-color:#5C6BC0"/>
	</linearGradient>
	<path style="fill:url(#SVGID_00000103222517159356334500000008185702818859461009_);" d="M52.5,23.7L50,17.5
		c-0.4-1-1.5-1.6-2.6-1.3c-1.5,0.5-3.2-0.2-3.9-1.7c-0.8-1.6-0.1-3.6,1.5-4.4c1-0.5,1.4-1.7,1-2.7l-2.5-6.2
		c-0.4-1.1-1.7-1.6-2.8-1.2l-9.9,4c-0.6,0.2-1.2,0.6-1.6,1.1c-0.2,0.2-0.4,0.3-0.7,0.3c-0.7-0.1-1.3,0-1.9,0.3L1.3,15.9
		c-1.1,0.4-1.6,1.7-1.2,2.8l2.5,6.2c0.4,1,1.6,1.6,2.6,1.2c1.7-0.5,3.6,0.4,4.1,2.2c0.5,1.6-0.2,3.2-1.7,3.9c-1,0.5-1.4,1.7-1,2.7
		l2.5,6.2c0.3,0.8,1.1,1.3,2,1.3c0.3,0,0.5-0.1,0.8-0.2l25.4-10.1c0.6-0.2,1.2-0.6,1.6-1.1c0.2-0.2,0.4-0.3,0.7-0.3
		c0.7,0.1,1.3,0,1.9-0.3l9.9-4C52.5,26,53,24.8,52.5,23.7z M40.2,27.3c-0.1,0-0.2,0.1-0.4,0.1c-0.1,0-0.1,0-0.2,0L39.1,26
		c-0.4-0.9-1.3-1.3-2.2-0.9c-0.9,0.3-1.3,1.3-1,2.2l0.6,1.4l-0.1,0.1c-0.1,0.1-0.2,0.2-0.3,0.2l-24.2,9.7l-1.6-4l0,0
		c1.9-1.4,3-3.8,2.7-6.2c-0.5-3.7-3.8-6.3-7.5-5.8l-1.6-4L28,8.9c0.1,0,0.2-0.1,0.4-0.1c0.1,0,0.1,0,0.2,0l0.5,1.3
		c0.3,0.7,0.9,1.1,1.6,1.1c0.2,0,0.4,0,0.6-0.1l0,0c0.9-0.4,1.3-1.3,1-2.2l-0.5-1.3c0.1-0.1,0.1-0.1,0.2-0.2
		c0.1-0.1,0.2-0.2,0.3-0.2L41,3.7l1.6,4c-2.5,1.8-3.4,5.1-2.2,7.9c1.1,2.8,4,4.5,7.1,4.2l1.6,4L40.2,27.3z"/>
	
		<linearGradient id="SVGID_00000102544593809239096790000004485789854997467305_" gradientUnits="userSpaceOnUse" x1="32.8505" y1="36.5336" x2="32.8505" y2="41.528" gradientTransform="matrix(1 0 0 -1 0 54)">
		<stop  offset="0" style="stop-color:#FF5722"/>
		<stop  offset="1" style="stop-color:#5C6BC0"/>
	</linearGradient>
	<path style="fill:url(#SVGID_00000102544593809239096790000004485789854997467305_);" d="M33.8,17.3c0.9-0.4,1.3-1.3,1-2.2
		l-0.6-1.5l0,0c-0.4-0.9-1.4-1.3-2.2-0.9c-1,0.3-1.4,1.3-1.1,2.1l0.6,1.5c0.3,0.7,0.9,1.1,1.6,1.1C33.4,17.5,33.6,17.4,33.8,17.3
		L33.8,17.3z"/>
	
		<linearGradient id="SVGID_00000072996512804845005550000005999873473464620417_" gradientUnits="userSpaceOnUse" x1="35.2717" y1="30.3446" x2="35.2717" y2="35.3501" gradientTransform="matrix(1 0 0 -1 0 54)">
		<stop  offset="0" style="stop-color:#FF5722"/>
		<stop  offset="1" style="stop-color:#5C6BC0"/>
	</linearGradient>
	<path style="fill:url(#SVGID_00000072996512804845005550000005999873473464620417_);" d="M36.6,19.7L36.6,19.7
		c-0.4-0.9-1.4-1.3-2.3-1c-0.9,0.4-1.3,1.4-0.9,2.2l0.6,1.6c0.3,0.7,0.9,1.1,1.6,1.1c0.2,0,0.4,0,0.6-0.1l0,0c0.9-0.4,1.3-1.3,1-2.2
		L36.6,19.7z"/>
</g>
</svg>
