<svg id="icon-twitter" xmlns="http://www.w3.org/2000/svg" width="32" height="32" viewBox="0 0 32 32">
  <path id="Path_24" data-name="Path 24" d="M16,0A16,16,0,1,1,0,16,16,16,0,0,1,16,0Z" transform="translate(0 0)" fill="#26a6d1"/>
  <path id="Path_25" data-name="Path 25" d="M83.417,83.827a8.263,8.263,0,0,1-2.323.619,3.956,3.956,0,0,0,1.779-2.173,8.2,8.2,0,0,1-2.569.953,4.1,4.1,0,0,0-2.951-1.238,3.984,3.984,0,0,0-4.042,3.923,3.808,3.808,0,0,0,.1.9,11.6,11.6,0,0,1-8.334-4.1,3.812,3.812,0,0,0-.548,1.972,3.891,3.891,0,0,0,1.8,3.266,4.111,4.111,0,0,1-1.832-.492v.05a3.959,3.959,0,0,0,3.244,3.848,4.182,4.182,0,0,1-1.065.138,4.077,4.077,0,0,1-.76-.071A4.033,4.033,0,0,0,69.7,94.143a8.266,8.266,0,0,1-5.022,1.68,8.5,8.5,0,0,1-.966-.055,11.7,11.7,0,0,0,6.2,1.764,11.252,11.252,0,0,0,11.5-11.167l-.011-.508A8.07,8.07,0,0,0,83.417,83.827Z" transform="translate(-57.089 -73.276)" fill="#fff"/>
</svg>
