<?xml version="1.0" encoding="utf-8"?>
<!-- Generator: Adobe Illustrator 26.2.1, SVG Export Plug-In . SVG Version: 6.00 Build 0)  -->
<svg version="1.1" id="icon-globe" xmlns="http://www.w3.org/2000/svg" xmlns:xlink="http://www.w3.org/1999/xlink" x="0px" y="0px"
	 viewBox="0 0 52.7 51.8" style="enable-background:new 0 0 52.7 51.8;" xml:space="preserve">
<style type="text/css">
	.st0{fill:url(#SVGID_1_);}
</style>
<linearGradient id="SVGID_1_" gradientUnits="userSpaceOnUse" x1="26.3511" y1="51.8059" x2="26.3511" y2="-1.818989e-12">
	<stop  offset="0" style="stop-color:#FF5722"/>
	<stop  offset="1" style="stop-color:#5C6BC0"/>
</linearGradient>
<path class="st0" d="M26.7,0c-0.1,0-0.2,0-0.4,0c-0.1,0-0.3,0-0.4,0C11.8,0.2,0.5,11.7,0.5,25.9c0,14.3,11.6,25.9,25.9,25.9
	c6.9,0,13.5-2.7,18.3-7.6c4.9-4.9,7.6-11.4,7.6-18.3C52.3,11.7,40.8,0.2,26.7,0z M48.5,24.1h-7.3c-0.2-3.7-0.8-7.2-1.8-10.3
	c1.3-0.6,2.6-1.4,3.8-2.2C46.2,15,48.1,19.3,48.5,24.1z M28.3,4.1c1.9,0.8,3.8,2.8,5.4,5.7c0.3,0.6,0.6,1.2,0.9,1.9
	c-2.1,0.7-4.2,1.1-6.3,1.3V4.1z M35.5,5.7c1.8,0.8,3.5,1.9,5,3.1c-0.8,0.5-1.6,1-2.4,1.4C37.4,8.6,36.5,7,35.5,5.7z M18.9,9.8
	c1.7-3,3.6-5,5.6-5.7V13c-2.2-0.1-4.4-0.6-6.5-1.3C18.3,11,18.6,10.4,18.9,9.8z M14.6,10.2c-0.8-0.4-1.6-0.9-2.4-1.4
	c1.5-1.3,3.2-2.3,5-3.1C16.2,7,15.3,8.6,14.6,10.2z M24.6,16.7v7.4h-9.4c0.1-3,0.6-6,1.5-8.9C19.3,16,21.9,16.5,24.6,16.7z
	 M24.6,27.8v7.3c-2.7,0.2-5.3,0.7-7.8,1.5c-0.9-2.9-1.4-5.8-1.5-8.8H24.6z M24.6,38.8v8.9c-2-0.8-4-2.8-5.6-5.7
	c-0.3-0.6-0.6-1.2-0.9-1.9C20.2,39.4,22.4,39,24.6,38.8z M17.2,46.1c-1.8-0.8-3.5-1.9-5-3.1c0.8-0.5,1.6-1,2.4-1.4
	C15.3,43.2,16.2,44.8,17.2,46.1z M33.8,42c-1.6,2.9-3.5,4.9-5.4,5.7v-8.8c2.1,0.2,4.3,0.6,6.3,1.3C34.4,40.8,34.1,41.4,33.8,42z
	 M38.1,41.6c0.8,0.4,1.7,0.9,2.5,1.4c-1.5,1.3-3.2,2.3-5,3.1C36.5,44.8,37.4,43.2,38.1,41.6z M28.3,35.1v-7.3h9.2
	c-0.1,3-0.6,6-1.5,8.8C33.5,35.8,30.9,35.3,28.3,35.1z M28.3,24.1v-7.4c2.6-0.2,5.2-0.7,7.6-1.5c0.9,2.9,1.4,5.9,1.5,8.9H28.3z
	 M9.5,11.5c1.2,0.8,2.5,1.6,3.8,2.2c-1,3.1-1.6,6.7-1.8,10.3H4.2C4.6,19.3,6.5,15,9.5,11.5z M4.2,27.8h7.3c0.2,3.7,0.8,7.1,1.8,10.2
	c-1.3,0.6-2.6,1.4-3.8,2.2C6.5,36.9,4.7,32.6,4.2,27.8z M43.2,40.3c-1.2-0.8-2.5-1.6-3.8-2.2c1-3.1,1.6-6.6,1.8-10.2h7.3
	C48,32.6,46.2,36.9,43.2,40.3z"/>
</svg>
