<?xml version="1.0" encoding="utf-8"?>
<!-- Generator: Adobe Illustrator 26.2.1, SVG Export Plug-In . SVG Version: 6.00 Build 0)  -->
<svg version="1.1" id="icon-delivery-truck" xmlns="http://www.w3.org/2000/svg" xmlns:xlink="http://www.w3.org/1999/xlink"
	 x="0px" y="0px" viewBox="0 0 52.7 51.8" style="enable-background:new 0 0 52.7 51.8;" xml:space="preserve">
<style type="text/css">
	.st0{fill:url(#SVGID_1_);}
</style>
<linearGradient id="SVGID_1_" gradientUnits="userSpaceOnUse" x1="26.25" y1="7.8" x2="26.25" y2="48.4" gradientTransform="matrix(1 0 0 -1 0 54)">
	<stop  offset="0" style="stop-color:#FF5722"/>
	<stop  offset="1" style="stop-color:#5C6BC0"/>
</linearGradient>
<path class="st0" d="M49.7,36V23c0-5.4-4.4-9.8-9.8-9.8l0,0h-7.3v-1.6c0-3.3-2.7-5.9-6-6H6c-3.3,0-5.9,2.7-6,6V35
	c0,3,2.3,5.5,5.2,5.9c0.7,3,3.5,5.3,6.7,5.3s6-2.2,6.7-5.2h8l0,0H32c0.8,3,3.5,5.2,6.7,5.2c3.3,0,6.1-2.4,6.8-5.5h4l0,0h3V36H49.7z
	 M11.9,42.8c-2,0-3.5-1.6-3.5-3.5c0-2,1.6-3.5,3.5-3.5c2,0,3.5,1.6,3.5,3.5C15.5,41.2,13.9,42.8,11.9,42.8z M29.2,35
	c0,1.4-1.1,2.5-2.5,2.5h-3.8l0,0h-4.2c-0.8-3-3.5-5.2-6.7-5.2s-5.9,2.2-6.7,5.1c-1-0.3-1.8-1.3-1.8-2.4v-6.2H13v-3.4H3.4v-2.6h13.5
	v-3.4H3.4v-2.6h17.4v-3.4H3.4v-1.9C3.4,10.2,4.5,9,6,9h20.7c1.4,0,2.5,1.1,2.5,2.5V35z M38.9,42.8c-2,0-3.5-1.6-3.5-3.5
	c0-2,1.6-3.5,3.5-3.5c2,0,3.5,1.6,3.5,3.5S40.8,42.8,38.9,42.8z M46.3,37.3h-0.8c-0.8-2.9-3.5-5-6.7-5c-2.7,0-5.1,1.6-6.2,3.9V35
	V16.6h7.3c1.5,0,2.9,0.5,4,1.4h-8.6v6.7c-0.1,1.1,0.2,2.3,0.9,3.2c1,1.1,2.5,1.7,4,1.6h6.1C46.3,29.5,46.3,37.3,46.3,37.3z M46.3,26
	h-6.1c-0.5,0.1-1-0.1-1.4-0.4c-0.1-0.2-0.2-0.4-0.2-0.6v-0.1v-3.5H46c0.1,0.5,0.2,1,0.2,1.6L46.3,26L46.3,26z"/>
</svg>
